PathFileType	4	(X/Y/Z)	/Users/visionmauri/Downloads/Videos/OAW07-top_Sports2D/OAW07-top_Sports2D_m_person00.trc
DataRate	CameraRate	NumFrames	NumMarkers	Units	OrigDataRate	OrigDataStartFrame	OrigNumFrames
30.0	30.0	7	22	m	30.0	0	2861
Frame#	Time	Hip			RHip			RKnee			RAnkle			RBigToe			RSmallToe			RHeel			LHip			LKnee			LAnkle			LBigToe			LSmallToe			LHeel			Neck			Head			Nose			RShoulder			RElbow			RWrist			LShoulder			LElbow			LWrist			
		X1	Y1	Z1	X2	Y2	Z2	X3	Y3	Z3	X4	Y4	Z4	X5	Y5	Z5	X6	Y6	Z6	X7	Y7	Z7	X8	Y8	Z8	X9	Y9	Z9	X10	Y10	Z10	X11	Y11	Z11	X12	Y12	Z12	X13	Y13	Z13	X14	Y14	Z14	X15	Y15	Z15	X16	Y16	Z16	X17	Y17	Z17	X18	Y18	Z18	X19	Y19	Z19	X20	Y20	Z20	X21	Y21	Z21	X22	Y22	Z22
164	5.468474426807759	1.580391159531197	0.5291967835394943	0.0301	1.5710237130519	0.4976767216380249	0.0301	1.6887538021493196	0.4043008296097684	0.129	1.7850019171937965	0.3316875757520675	0.023	1.8250473079544158	0.2926244846736485	0.2179	1.8089115864870215	0.2864184513023322	0.1804	1.8000861048441514	0.3185894229382942	-0.0119	1.6096741835109198	0.5463627604300751	0.0301	1.715752996726198	0.4449396649059241	0.129	1.815841603420489	0.3623658873572117	0.023	1.8599579424874935	0.3139208444987711	0.2179	1.8669099420118145	0.3321030000187913	0.1804	1.8295889476082758	0.35059508275087464	-0.0119	1.4260891746441016	0.6469154049542124	0.0008	1.3617959732333287	0.6919746078736951	0.0655	1.4217604957282897	0.6442039518724351	0.1076	1.39769660940699	0.5866191992049016	-0.01275	1.478445162578102	0.4977868117487678	0.0702	1.5486643473825399	0.4441147276771698	0.1076	1.477545186906281	0.6899639557794963	-0.01275	1.5739987959587822	0.6429077786636179	0.0702	1.641986826321406	0.5951598747040419	0.1076
165	5.501818783068782	1.5810751367043028	0.5294396801964695	0.0301	1.5713404635573736	0.4974335777235909	0.0301	1.6889092598697768	0.40424893678280605	0.129	1.7851224615443673	0.3316557896455243	0.023	1.825508856182967	0.2921634182097792	0.2179	1.8094324275468683	0.2859672044710465	0.1804	1.8007179141059575	0.318082551836925	-0.0119	1.610311580335125	0.546601733093219	0.0301	1.7153219034998086	0.4452846587640958	0.129	1.8157961384967105	0.3624565394262822	0.023	1.8595497641197138	0.3135080735165168	0.2179	1.8669069945888943	0.33216442192492884	0.1804	1.8305583039455253	0.3507716248456557	-0.0119	1.4273658789841637	0.6458745133668523	0.0008	1.3636773472028125	0.6912544585698981	0.0655	1.4235591645473158	0.6435271821148554	0.1076	1.3985723323432946	0.5859221056157566	-0.01275	1.4792461819867966	0.49712690337315457	0.0702	1.549033094167638	0.4439232712335694	0.1076	1.478276194772836	0.6891104731088703	-0.01275	1.5742299502758046	0.6426046879427307	0.0702	1.6426389656308722	0.5945804225577607	0.1076
166	5.535163139329805	1.5824420208645626	0.5292158393915367	0.0301	1.5722698058245685	0.4967660787177484	0.0301	1.6891500526101688	0.40413440400754186	0.129	1.7850497020360363	0.3317786269141313	0.023	1.8255995408102876	0.2915646541022246	0.2179	1.8095539414216706	0.2853876541337562	0.1804	1.8011031054528914	0.31777423930898774	-0.0119	1.6112197909120556	0.5466444882306774	0.0301	1.714997143397066	0.44553618739410833	0.129	1.815664465352693	0.36245681091045456	0.023	1.8592339068001984	0.3127915131251382	0.2179	1.8670114758317422	0.3319276952933313	0.1804	1.8317349315395637	0.3505752928126566	-0.0119	1.428995496391173	0.6443743610497151	0.0008	1.3666980721140107	0.6903335233627514	0.0655	1.4267859264018132	0.6424226043406035	0.1076	1.4001816946547478	0.5848538263346221	-0.01275	1.4799383204993775	0.49626007665364624	0.0702	1.5492835182714864	0.44403509147336845	0.1076	1.4796689846179698	0.6877549697170336	-0.01275	1.5752915076947445	0.6416321603916799	0.0702	1.6438717572998873	0.5938235980389323	0.1076
167	5.568507495590828	1.5842644789462514	0.5284501296685843	0.0301	1.573635929730466	0.49582803338328585	0.0301	1.689492509022669	0.4037974117991575	0.129	1.784714408173632	0.3319763548224809	0.023	1.8253536865724536	0.2909886271493257	0.2179	1.8091856004883238	0.28482439386704406	0.1804	1.8009007852655958	0.31791125675371024	-0.0119	1.6122113976491508	0.5464213790124481	0.0301	1.7152019115123647	0.4453531673371593	0.129	1.815752833102169	0.36191719758409985	0.023	1.8593271097021293	0.31160907312299346	0.2179	1.8673739913236513	0.33103730271773996	0.1804	1.8328086856505201	0.34950085641328704	-0.0119	1.430724996721268	0.6426413406797731	0.0008	1.370066405476561	0.6895707947387945	0.0655	1.4307792913468391	0.6411953416981225	0.1076	1.4022581107828715	0.5836970041685413	-0.01275	1.4802519676246269	0.49552506471117086	0.0702	1.5490918846214956	0.44460865135793476	0.1076	1.481692719096816	0.6864054772999489	-0.01275	1.5772599927332502	0.6400832401457932	0.0702	1.6455951601531704	0.592886168850354	0.1076
168	5.601851851851851	1.5859221199205722	0.5275484566102561	0.0301	1.5748104665069063	0.49508353084992773	0.0301	1.6899358421710433	0.4030886449077268	0.129	1.7842476059807966	0.3320095530619319	0.023	1.8252973062253008	0.29057984707251494	0.2179	1.8087544597782843	0.2843986485350367	0.1804	1.8001417447435673	0.31841372978433685	-0.0119	1.6130562911139297	0.5461067799922416	0.0301	1.7161974466780678	0.44455840712688593	0.129	1.8164750132101342	0.36042752520569693	0.023	1.859973315592505	0.30989248818400633	0.2179	1.8680747634122417	0.3293621853032441	0.1804	1.8335763198009245	0.3473518161601976	-0.0119	1.4325080636088994	0.641101117753663	0.0008	1.3725288056542007	0.6893054508197498	0.0655	1.4341547872198634	0.6403363017068016	0.1076	1.4041592647758472	0.582858836867751	-0.01275	1.4802511538779444	0.49526383998718504	0.0702	1.5483153295062035	0.44549533493429166	0.1076	1.4839908793670429	0.6857903935361045	-0.01275	1.579631100615681	0.6386048135742004	0.0702	1.647426681025912	0.5917151909632606	0.1076
169	5.635196208112874	1.5872381794126502	0.5268528433707564	0.0301	1.5755622818526867	0.4946787135118501	0.0301	1.6904605364701661	0.4020783985072214	0.129	1.7838037189067115	0.33180641457066745	0.023	1.825730270461041	0.29027162580238247	0.2179	1.8086278259060717	0.28404426183331394	0.1804	1.7991850604456219	0.31896458736302014	-0.0119	1.6137941114286551	0.5458837382289546	0.0301	1.7177285441985068	0.4434034696243043	0.129	1.8177784402002868	0.3581929820563651	0.023	1.8609387586058999	0.30777316227726076	0.2179	1.8690077934046592	0.3271901960350422	0.1804	1.8342138254201896	0.344534373999036	-0.0119	1.4346520084853709	0.6399209089306188	0.0008	1.3740708388841114	0.6893937288931119	0.0655	1.4366714449648887	0.6398603957034775	0.1076	1.4057341416121336	0.5823184852615063	-0.01275	1.4802530121145878	0.4953526887455212	0.0702	1.547197783926507	0.44643042366752583	0.1076	1.4863540567050322	0.6858632960402062	-0.01275	1.5820338997231853	0.6375792260061811	0.0702	1.6492032316097809	0.5902859825769046	0.1076
170	5.668540564373897	1.588410676066508	0.5263216863223276	0.0301	1.5761200988519335	0.4944230437293619	0.0301	1.6910132130347149	0.4009771753045446	0.129	1.7833970755060962	0.331509183022038	0.023	1.826411462077848	0.28997448787391816	0.2179	1.8087081744139801	0.28368894729625616	0.1804	1.7982414771406137	0.3194302351905949	-0.0119	1.6145291929239223	0.5457404633581757	0.0301	1.719389947081609	0.4422137286336686	0.129	1.8192701997490026	0.3557540023126921	0.023	1.8619433695313439	0.30553667567730347	0.2179	1.8699935315708653	0.3249215440374856	0.1804	1.8348781670720349	0.34159650640453737	-0.0119	1.4371437820045367	0.6390365734108793	0.0008	1.375337410726943	0.689558246205881	0.0655	1.4388614846275118	0.63951994360275	0.1076	1.4071843918412135	0.581860927400058	-0.01275	1.4803632509501048	0.4955150192663759	0.0702	1.5460390730595832	0.447300799312139	0.1076	1.488711804053972	0.6861394356657243	-0.01275	1.5844185473084873	0.6368689668669468	0.0702	1.650944257060932	0.5887425159200171	0.1076
